<svg width="24" height="24" viewBox="0 0 24 24" fill="none" xmlns="http://www.w3.org/2000/svg">
<path fill-rule="evenodd" clip-rule="evenodd" d="M2.10001 10.8C2.60001 6.30001 6.30001 2.60001 10.9 2.10001C16.9 1.40001 22 6.10001 22 12.1C22 16.3 19.4 19.9 15.7 21.4C15.3 21.5 15 21.2 15 20.9V18.3C15 17.4 14.6 16.5 14 16C16.3 15.5 18 14.2 18 12C18 10.8 17.5 9.80001 16.8 9.00001C16.9 8.80001 17 8.40001 17 7.60001C17 7.20001 17 6.60001 16.8 6.00001C16.8 6.00001 15.3 6.00001 14 7.30001C13.4 7.10001 12.7 7.00001 12 7.00001C11.3 7.00001 10.6 7.10001 10.1 7.30001C8.70001 6.00001 7.30001 6.00001 7.30001 6.00001C7.00001 6.60001 7.00001 7.20001 7.00001 7.60001C7.00001 8.30001 7.10001 8.80001 7.20001 9.00001C6.50001 9.80001 6.00001 10.9 6.00001 12C6.00001 14.2 7.70001 15.5 10 16C9.40001 16.4 9.10001 17.1 9.00001 17.8C8.80001 17.9 8.50001 18 8.10001 18C7.80001 18 7.20001 17.8 6.70001 17C6.50001 16.7 6.00001 16 5.40001 16C5.30001 16 5.00001 16 5.00001 16.2C5.00001 16.2768 5.05893 16.2946 5.22199 16.344C5.27136 16.3589 5.33028 16.3768 5.40001 16.4C5.70001 16.7 5.90001 17 6.00001 17.4C6.10001 18.1 6.70001 19.3 8.10001 19.3C8.60001 19.3 9.00001 19.2 9.00001 19.2V20.8C9.00001 21.2 8.70001 21.4 8.40001 21.3C4.30001 19.7 1.60001 15.5 2.10001 10.8Z" fill="#29C442"/>
</svg>
